<?xml version="1.0" encoding="UTF-8" standalone="no"?>
<!DOCTYPE svg PUBLIC "-//W3C//DTD SVG 1.1//EN"
 "http://www.w3.org/Graphics/SVG/1.1/DTD/svg11.dtd">
<!-- Generated by graphviz version 2.26.3 (20100126.1600)
 -->
<!-- Title: controllers_diagram Pages: 1 -->
<svg width="857pt" height="713pt"
 viewBox="0.00 0.00 857.00 713.00" xmlns="http://www.w3.org/2000/svg" xmlns:xlink="http://www.w3.org/1999/xlink">
<g id="graph1" class="graph" transform="scale(1 1) rotate(0) translate(4 709)">
<title>controllers_diagram</title>
<polygon fill="white" stroke="white" points="-4,5 -4,-709 854,-709 854,5 -4,5"/>
<!-- _diagram_info -->
<g id="node1" class="node"><title>_diagram_info</title>
<text text-anchor="start" x="69" y="-98.3" font-family="Times Roman,serif" font-size="13.00">Controllers diagram</text>
<text text-anchor="start" x="69" y="-81.3" font-family="Times Roman,serif" font-size="13.00">Date: Sep 05 2012 &#45; 12:01</text>
<text text-anchor="start" x="69" y="-64.3" font-family="Times Roman,serif" font-size="13.00">Migration version: 20120829183622</text>
<text text-anchor="start" x="69" y="-47.3" font-family="Times Roman,serif" font-size="13.00">Generated by RailRoady 1.0.8</text>
<text text-anchor="start" x="69" y="-30.3" font-family="Times Roman,serif" font-size="13.00">http://railroady.prestonlee.com</text>
</g>
<!-- DomainsController -->
<g id="node2" class="node"><title>DomainsController</title>
<polyline fill="none" stroke="black" points="13,-281.5 135,-281.5 "/>
<path fill="none" stroke="black" d="M135,-281.5C141,-281.5 147,-287.5 147,-293.5"/>
<polyline fill="none" stroke="black" points="147,-293.5 147,-443.5 "/>
<path fill="none" stroke="black" d="M147,-443.5C147,-449.5 141,-455.5 135,-455.5"/>
<polyline fill="none" stroke="black" points="135,-455.5 13,-455.5 "/>
<path fill="none" stroke="black" d="M13,-455.5C7,-455.5 1,-449.5 1,-443.5"/>
<polyline fill="none" stroke="black" points="1,-443.5 1,-293.5 "/>
<path fill="none" stroke="black" d="M1,-293.5C1,-287.5 7,-281.5 13,-281.5"/>
<text text-anchor="middle" x="74" y="-438.9" font-family="Times Roman,serif" font-size="14.00">DomainsController</text>
<polyline fill="none" stroke="black" points="1,-429.5 147,-429.5 "/>
<text text-anchor="start" x="9" y="-412.9" font-family="Times Roman,serif" font-size="14.00">show</text>
<polyline fill="none" stroke="black" points="1,-403.5 147,-403.5 "/>
<polyline fill="none" stroke="black" points="1,-379.5 147,-379.5 "/>
<text text-anchor="start" x="9" y="-362.9" font-family="Times Roman,serif" font-size="14.00">_layout</text>
<text text-anchor="start" x="9" y="-344.9" font-family="Times Roman,serif" font-size="14.00">page</text>
<text text-anchor="start" x="9" y="-326.9" font-family="Times Roman,serif" font-size="14.00">per_page</text>
<text text-anchor="start" x="9" y="-308.9" font-family="Times Roman,serif" font-size="14.00">sort_column</text>
<text text-anchor="start" x="9" y="-290.9" font-family="Times Roman,serif" font-size="14.00">sort_direction</text>
</g>
<!-- UserCategoriesController -->
<g id="node3" class="node"><title>UserCategoriesController</title>
<polyline fill="none" stroke="black" points="193,-161.5 416,-161.5 "/>
<path fill="none" stroke="black" d="M416,-161.5C422,-161.5 428,-167.5 428,-173.5"/>
<polyline fill="none" stroke="black" points="428,-173.5 428,-377.5 "/>
<path fill="none" stroke="black" d="M428,-377.5C428,-383.5 422,-389.5 416,-389.5"/>
<polyline fill="none" stroke="black" points="416,-389.5 193,-389.5 "/>
<path fill="none" stroke="black" d="M193,-389.5C187,-389.5 181,-383.5 181,-377.5"/>
<polyline fill="none" stroke="black" points="181,-377.5 181,-173.5 "/>
<path fill="none" stroke="black" d="M181,-173.5C181,-167.5 187,-161.5 193,-161.5"/>
<text text-anchor="middle" x="304.5" y="-372.9" font-family="Times Roman,serif" font-size="14.00">UserCategoriesController</text>
<polyline fill="none" stroke="black" points="181,-363.5 428,-363.5 "/>
<text text-anchor="start" x="189" y="-346.9" font-family="Times Roman,serif" font-size="14.00">_one_time_conditions_valid_204?</text>
<text text-anchor="start" x="189" y="-328.9" font-family="Times Roman,serif" font-size="14.00">create</text>
<text text-anchor="start" x="189" y="-310.9" font-family="Times Roman,serif" font-size="14.00">destroy</text>
<text text-anchor="start" x="189" y="-292.9" font-family="Times Roman,serif" font-size="14.00">edit</text>
<text text-anchor="start" x="189" y="-274.9" font-family="Times Roman,serif" font-size="14.00">index</text>
<text text-anchor="start" x="189" y="-256.9" font-family="Times Roman,serif" font-size="14.00">new</text>
<text text-anchor="start" x="189" y="-238.9" font-family="Times Roman,serif" font-size="14.00">set_snop</text>
<text text-anchor="start" x="189" y="-220.9" font-family="Times Roman,serif" font-size="14.00">update</text>
<polyline fill="none" stroke="black" points="181,-211.5 428,-211.5 "/>
<polyline fill="none" stroke="black" points="181,-187.5 428,-187.5 "/>
<text text-anchor="start" x="189" y="-170.9" font-family="Times Roman,serif" font-size="14.00">_layout</text>
</g>
<!-- ApplicationController -->
<g id="node4" class="node"><title>ApplicationController</title>
<polyline fill="none" stroke="black" points="473,-381.5 696,-381.5 "/>
<path fill="none" stroke="black" d="M696,-381.5C702,-381.5 708,-387.5 708,-393.5"/>
<polyline fill="none" stroke="black" points="708,-393.5 708,-507.5 "/>
<path fill="none" stroke="black" d="M708,-507.5C708,-513.5 702,-519.5 696,-519.5"/>
<polyline fill="none" stroke="black" points="696,-519.5 473,-519.5 "/>
<path fill="none" stroke="black" d="M473,-519.5C467,-519.5 461,-513.5 461,-507.5"/>
<polyline fill="none" stroke="black" points="461,-507.5 461,-393.5 "/>
<path fill="none" stroke="black" d="M461,-393.5C461,-387.5 467,-381.5 473,-381.5"/>
<text text-anchor="middle" x="584.5" y="-502.9" font-family="Times Roman,serif" font-size="14.00">ApplicationController</text>
<polyline fill="none" stroke="black" points="461,-493.5 708,-493.5 "/>
<text text-anchor="start" x="469" y="-476.9" font-family="Times Roman,serif" font-size="14.00">_one_time_conditions_valid_136?</text>
<text text-anchor="start" x="469" y="-458.9" font-family="Times Roman,serif" font-size="14.00">_one_time_conditions_valid_138?</text>
<text text-anchor="start" x="469" y="-440.9" font-family="Times Roman,serif" font-size="14.00">remove_cache_for_ajax</text>
<polyline fill="none" stroke="black" points="461,-431.5 708,-431.5 "/>
<polyline fill="none" stroke="black" points="461,-407.5 708,-407.5 "/>
<text text-anchor="start" x="469" y="-390.9" font-family="Times Roman,serif" font-size="14.00">_layout</text>
</g>
<!-- HomeController -->
<g id="node5" class="node"><title>HomeController</title>
<polyline fill="none" stroke="black" points="553,-1.5 654,-1.5 "/>
<path fill="none" stroke="black" d="M654,-1.5C660,-1.5 666,-7.5 666,-13.5"/>
<polyline fill="none" stroke="black" points="666,-13.5 666,-91.5 "/>
<path fill="none" stroke="black" d="M666,-91.5C666,-97.5 660,-103.5 654,-103.5"/>
<polyline fill="none" stroke="black" points="654,-103.5 553,-103.5 "/>
<path fill="none" stroke="black" d="M553,-103.5C547,-103.5 541,-97.5 541,-91.5"/>
<polyline fill="none" stroke="black" points="541,-91.5 541,-13.5 "/>
<path fill="none" stroke="black" d="M541,-13.5C541,-7.5 547,-1.5 553,-1.5"/>
<text text-anchor="middle" x="603.5" y="-86.9" font-family="Times Roman,serif" font-size="14.00">HomeController</text>
<polyline fill="none" stroke="black" points="541,-77.5 666,-77.5 "/>
<text text-anchor="start" x="549" y="-60.9" font-family="Times Roman,serif" font-size="14.00">index</text>
<polyline fill="none" stroke="black" points="541,-51.5 666,-51.5 "/>
<polyline fill="none" stroke="black" points="541,-27.5 666,-27.5 "/>
<text text-anchor="start" x="549" y="-10.9" font-family="Times Roman,serif" font-size="14.00">_layout</text>
</g>
<!-- ResourcesController -->
<g id="node6" class="node"><title>ResourcesController</title>
<polyline fill="none" stroke="black" points="353,-1.5 484,-1.5 "/>
<path fill="none" stroke="black" d="M484,-1.5C490,-1.5 496,-7.5 496,-13.5"/>
<polyline fill="none" stroke="black" points="496,-13.5 496,-91.5 "/>
<path fill="none" stroke="black" d="M496,-91.5C496,-97.5 490,-103.5 484,-103.5"/>
<polyline fill="none" stroke="black" points="484,-103.5 353,-103.5 "/>
<path fill="none" stroke="black" d="M353,-103.5C347,-103.5 341,-97.5 341,-91.5"/>
<polyline fill="none" stroke="black" points="341,-91.5 341,-13.5 "/>
<path fill="none" stroke="black" d="M341,-13.5C341,-7.5 347,-1.5 353,-1.5"/>
<text text-anchor="middle" x="418.5" y="-86.9" font-family="Times Roman,serif" font-size="14.00">ResourcesController</text>
<polyline fill="none" stroke="black" points="341,-77.5 496,-77.5 "/>
<text text-anchor="start" x="349" y="-60.9" font-family="Times Roman,serif" font-size="14.00">show</text>
<polyline fill="none" stroke="black" points="341,-51.5 496,-51.5 "/>
<polyline fill="none" stroke="black" points="341,-27.5 496,-27.5 "/>
<text text-anchor="start" x="349" y="-10.9" font-family="Times Roman,serif" font-size="14.00">_layout</text>
</g>
<!-- UsersController -->
<g id="node7" class="node"><title>UsersController</title>
<polyline fill="none" stroke="black" points="193,-421.5 416,-421.5 "/>
<path fill="none" stroke="black" d="M416,-421.5C422,-421.5 428,-427.5 428,-433.5"/>
<polyline fill="none" stroke="black" points="428,-433.5 428,-547.5 "/>
<path fill="none" stroke="black" d="M428,-547.5C428,-553.5 422,-559.5 416,-559.5"/>
<polyline fill="none" stroke="black" points="416,-559.5 193,-559.5 "/>
<path fill="none" stroke="black" d="M193,-559.5C187,-559.5 181,-553.5 181,-547.5"/>
<polyline fill="none" stroke="black" points="181,-547.5 181,-433.5 "/>
<path fill="none" stroke="black" d="M181,-433.5C181,-427.5 187,-421.5 193,-421.5"/>
<text text-anchor="middle" x="304.5" y="-542.9" font-family="Times Roman,serif" font-size="14.00">UsersController</text>
<polyline fill="none" stroke="black" points="181,-533.5 428,-533.5 "/>
<text text-anchor="start" x="189" y="-516.9" font-family="Times Roman,serif" font-size="14.00">_one_time_conditions_valid_226?</text>
<text text-anchor="start" x="189" y="-498.9" font-family="Times Roman,serif" font-size="14.00">settings</text>
<text text-anchor="start" x="189" y="-480.9" font-family="Times Roman,serif" font-size="14.00">show</text>
<polyline fill="none" stroke="black" points="181,-471.5 428,-471.5 "/>
<polyline fill="none" stroke="black" points="181,-447.5 428,-447.5 "/>
<text text-anchor="start" x="189" y="-430.9" font-family="Times Roman,serif" font-size="14.00">_layout</text>
</g>
<!-- SnopsController -->
<g id="node8" class="node"><title>SnopsController</title>
<polyline fill="none" stroke="black" points="473,-141.5 696,-141.5 "/>
<path fill="none" stroke="black" d="M696,-141.5C702,-141.5 708,-147.5 708,-153.5"/>
<polyline fill="none" stroke="black" points="708,-153.5 708,-321.5 "/>
<path fill="none" stroke="black" d="M708,-321.5C708,-327.5 702,-333.5 696,-333.5"/>
<polyline fill="none" stroke="black" points="696,-333.5 473,-333.5 "/>
<path fill="none" stroke="black" d="M473,-333.5C467,-333.5 461,-327.5 461,-321.5"/>
<polyline fill="none" stroke="black" points="461,-321.5 461,-153.5 "/>
<path fill="none" stroke="black" d="M461,-153.5C461,-147.5 467,-141.5 473,-141.5"/>
<text text-anchor="middle" x="584.5" y="-316.9" font-family="Times Roman,serif" font-size="14.00">SnopsController</text>
<polyline fill="none" stroke="black" points="461,-307.5 708,-307.5 "/>
<text text-anchor="start" x="469" y="-290.9" font-family="Times Roman,serif" font-size="14.00">_one_time_conditions_valid_308?</text>
<text text-anchor="start" x="469" y="-272.9" font-family="Times Roman,serif" font-size="14.00">_one_time_conditions_valid_310?</text>
<text text-anchor="start" x="469" y="-254.9" font-family="Times Roman,serif" font-size="14.00">create</text>
<text text-anchor="start" x="469" y="-236.9" font-family="Times Roman,serif" font-size="14.00">destroy</text>
<text text-anchor="start" x="469" y="-218.9" font-family="Times Roman,serif" font-size="14.00">new</text>
<text text-anchor="start" x="469" y="-200.9" font-family="Times Roman,serif" font-size="14.00">verify_snop_owner</text>
<polyline fill="none" stroke="black" points="461,-191.5 708,-191.5 "/>
<polyline fill="none" stroke="black" points="461,-167.5 708,-167.5 "/>
<text text-anchor="start" x="469" y="-150.9" font-family="Times Roman,serif" font-size="14.00">_layout</text>
</g>
<!-- AboutController -->
<g id="node9" class="node"><title>AboutController</title>
<polyline fill="none" stroke="black" points="33,-581.5 136,-581.5 "/>
<path fill="none" stroke="black" d="M136,-581.5C142,-581.5 148,-587.5 148,-593.5"/>
<polyline fill="none" stroke="black" points="148,-593.5 148,-671.5 "/>
<path fill="none" stroke="black" d="M148,-671.5C148,-677.5 142,-683.5 136,-683.5"/>
<polyline fill="none" stroke="black" points="136,-683.5 33,-683.5 "/>
<path fill="none" stroke="black" d="M33,-683.5C27,-683.5 21,-677.5 21,-671.5"/>
<polyline fill="none" stroke="black" points="21,-671.5 21,-593.5 "/>
<path fill="none" stroke="black" d="M21,-593.5C21,-587.5 27,-581.5 33,-581.5"/>
<text text-anchor="middle" x="84.5" y="-666.9" font-family="Times Roman,serif" font-size="14.00">AboutController</text>
<polyline fill="none" stroke="black" points="21,-657.5 148,-657.5 "/>
<text text-anchor="start" x="29" y="-640.9" font-family="Times Roman,serif" font-size="14.00">show</text>
<polyline fill="none" stroke="black" points="21,-631.5 148,-631.5 "/>
<polyline fill="none" stroke="black" points="21,-607.5 148,-607.5 "/>
<text text-anchor="start" x="29" y="-590.9" font-family="Times Roman,serif" font-size="14.00">_layout</text>
</g>
<!-- SearchController -->
<g id="node10" class="node"><title>SearchController</title>
<polyline fill="none" stroke="black" points="433,-601.5 542,-601.5 "/>
<path fill="none" stroke="black" d="M542,-601.5C548,-601.5 554,-607.5 554,-613.5"/>
<polyline fill="none" stroke="black" points="554,-613.5 554,-691.5 "/>
<path fill="none" stroke="black" d="M554,-691.5C554,-697.5 548,-703.5 542,-703.5"/>
<polyline fill="none" stroke="black" points="542,-703.5 433,-703.5 "/>
<path fill="none" stroke="black" d="M433,-703.5C427,-703.5 421,-697.5 421,-691.5"/>
<polyline fill="none" stroke="black" points="421,-691.5 421,-613.5 "/>
<path fill="none" stroke="black" d="M421,-613.5C421,-607.5 427,-601.5 433,-601.5"/>
<text text-anchor="middle" x="487.5" y="-686.9" font-family="Times Roman,serif" font-size="14.00">SearchController</text>
<polyline fill="none" stroke="black" points="421,-677.5 554,-677.5 "/>
<text text-anchor="start" x="429" y="-660.9" font-family="Times Roman,serif" font-size="14.00">search</text>
<polyline fill="none" stroke="black" points="421,-651.5 554,-651.5 "/>
<polyline fill="none" stroke="black" points="421,-627.5 554,-627.5 "/>
<text text-anchor="start" x="429" y="-610.9" font-family="Times Roman,serif" font-size="14.00">_layout</text>
</g>
<!-- FaveSnopsController -->
<g id="node11" class="node"><title>FaveSnopsController</title>
<polyline fill="none" stroke="black" points="613,-561.5 836,-561.5 "/>
<path fill="none" stroke="black" d="M836,-561.5C842,-561.5 848,-567.5 848,-573.5"/>
<polyline fill="none" stroke="black" points="848,-573.5 848,-687.5 "/>
<path fill="none" stroke="black" d="M848,-687.5C848,-693.5 842,-699.5 836,-699.5"/>
<polyline fill="none" stroke="black" points="836,-699.5 613,-699.5 "/>
<path fill="none" stroke="black" d="M613,-699.5C607,-699.5 601,-693.5 601,-687.5"/>
<polyline fill="none" stroke="black" points="601,-687.5 601,-573.5 "/>
<path fill="none" stroke="black" d="M601,-573.5C601,-567.5 607,-561.5 613,-561.5"/>
<text text-anchor="middle" x="724.5" y="-682.9" font-family="Times Roman,serif" font-size="14.00">FaveSnopsController</text>
<polyline fill="none" stroke="black" points="601,-673.5 848,-673.5 "/>
<text text-anchor="start" x="609" y="-656.9" font-family="Times Roman,serif" font-size="14.00">_one_time_conditions_valid_324?</text>
<text text-anchor="start" x="609" y="-638.9" font-family="Times Roman,serif" font-size="14.00">favourite</text>
<text text-anchor="start" x="609" y="-620.9" font-family="Times Roman,serif" font-size="14.00">unfavourite</text>
<polyline fill="none" stroke="black" points="601,-611.5 848,-611.5 "/>
<polyline fill="none" stroke="black" points="601,-587.5 848,-587.5 "/>
<text text-anchor="start" x="609" y="-570.9" font-family="Times Roman,serif" font-size="14.00">_layout</text>
</g>
</g>
</svg>
