<?xml version="1.0" encoding="UTF-8" standalone="no"?>
<!DOCTYPE svg PUBLIC "-//W3C//DTD SVG 1.1//EN"
 "http://www.w3.org/Graphics/SVG/1.1/DTD/svg11.dtd">
<!-- Generated by graphviz version 2.26.3 (20100126.1600)
 -->
<!-- Title: models_diagram Pages: 1 -->
<svg width="679pt" height="1398pt"
 viewBox="0.00 0.00 678.64 1398.00" xmlns="http://www.w3.org/2000/svg" xmlns:xlink="http://www.w3.org/1999/xlink">
<g id="graph1" class="graph" transform="scale(1 1) rotate(0) translate(4 1394)">
<title>models_diagram</title>
<polygon fill="white" stroke="white" points="-4,5 -4,-1394 675.637,-1394 675.637,5 -4,5"/>
<!-- _diagram_info -->
<g id="node1" class="node"><title>_diagram_info</title>
<text text-anchor="start" x="8" y="-1366.8" font-family="Times Roman,serif" font-size="13.00">Models diagram</text>
<text text-anchor="start" x="8" y="-1349.8" font-family="Times Roman,serif" font-size="13.00">Date: Sep 05 2012 &#45; 12:01</text>
<text text-anchor="start" x="8" y="-1332.8" font-family="Times Roman,serif" font-size="13.00">Migration version: 20120829183622</text>
<text text-anchor="start" x="8" y="-1315.8" font-family="Times Roman,serif" font-size="13.00">Generated by RailRoady 1.0.8</text>
<text text-anchor="start" x="8" y="-1298.8" font-family="Times Roman,serif" font-size="13.00">http://railroady.prestonlee.com</text>
</g>
<!-- Domain -->
<g id="node2" class="node"><title>Domain</title>
<polyline fill="none" stroke="black" points="279.5,-1283 420.5,-1283 "/>
<path fill="none" stroke="black" d="M420.5,-1283C426.5,-1283 432.5,-1289 432.5,-1295"/>
<polyline fill="none" stroke="black" points="432.5,-1295 432.5,-1377 "/>
<path fill="none" stroke="black" d="M432.5,-1377C432.5,-1383 426.5,-1389 420.5,-1389"/>
<polyline fill="none" stroke="black" points="420.5,-1389 279.5,-1389 "/>
<path fill="none" stroke="black" d="M279.5,-1389C273.5,-1389 267.5,-1383 267.5,-1377"/>
<polyline fill="none" stroke="black" points="267.5,-1377 267.5,-1295 "/>
<path fill="none" stroke="black" d="M267.5,-1295C267.5,-1289 273.5,-1283 279.5,-1283"/>
<text text-anchor="middle" x="350" y="-1372.4" font-family="Times Roman,serif" font-size="14.00">Domain</text>
<polyline fill="none" stroke="black" points="267.5,-1363 432.5,-1363 "/>
<text text-anchor="start" x="275.5" y="-1346.4" font-family="Times Roman,serif" font-size="14.00">id :integer</text>
<text text-anchor="start" x="275.5" y="-1328.4" font-family="Times Roman,serif" font-size="14.00">uri :string</text>
<text text-anchor="start" x="275.5" y="-1310.4" font-family="Times Roman,serif" font-size="14.00">created_at :datetime</text>
<text text-anchor="start" x="275.5" y="-1292.4" font-family="Times Roman,serif" font-size="14.00">updated_at :datetime</text>
</g>
<!-- Snop -->
<g id="node3" class="node"><title>Snop</title>
<polyline fill="none" stroke="black" points="278.5,-775 419.5,-775 "/>
<path fill="none" stroke="black" d="M419.5,-775C425.5,-775 431.5,-781 431.5,-787"/>
<polyline fill="none" stroke="black" points="431.5,-787 431.5,-1067 "/>
<path fill="none" stroke="black" d="M431.5,-1067C431.5,-1073 425.5,-1079 419.5,-1079"/>
<polyline fill="none" stroke="black" points="419.5,-1079 278.5,-1079 "/>
<path fill="none" stroke="black" d="M278.5,-1079C272.5,-1079 266.5,-1073 266.5,-1067"/>
<polyline fill="none" stroke="black" points="266.5,-1067 266.5,-787 "/>
<path fill="none" stroke="black" d="M266.5,-787C266.5,-781 272.5,-775 278.5,-775"/>
<text text-anchor="middle" x="349" y="-1062.4" font-family="Times Roman,serif" font-size="14.00">Snop</text>
<polyline fill="none" stroke="black" points="266.5,-1053 431.5,-1053 "/>
<text text-anchor="start" x="274.5" y="-1036.4" font-family="Times Roman,serif" font-size="14.00">id :integer</text>
<text text-anchor="start" x="274.5" y="-1018.4" font-family="Times Roman,serif" font-size="14.00">user_id :integer</text>
<text text-anchor="start" x="274.5" y="-1000.4" font-family="Times Roman,serif" font-size="14.00">title :string</text>
<text text-anchor="start" x="274.5" y="-982.4" font-family="Times Roman,serif" font-size="14.00">point1 :string</text>
<text text-anchor="start" x="274.5" y="-964.4" font-family="Times Roman,serif" font-size="14.00">point2 :string</text>
<text text-anchor="start" x="274.5" y="-946.4" font-family="Times Roman,serif" font-size="14.00">point3 :string</text>
<text text-anchor="start" x="274.5" y="-928.4" font-family="Times Roman,serif" font-size="14.00">summary :string</text>
<text text-anchor="start" x="274.5" y="-910.4" font-family="Times Roman,serif" font-size="14.00">created_at :datetime</text>
<text text-anchor="start" x="274.5" y="-892.4" font-family="Times Roman,serif" font-size="14.00">updated_at :datetime</text>
<text text-anchor="start" x="274.5" y="-874.4" font-family="Times Roman,serif" font-size="14.00">domain_id :integer</text>
<text text-anchor="start" x="274.5" y="-856.4" font-family="Times Roman,serif" font-size="14.00">resource_id :integer</text>
<text text-anchor="start" x="274.5" y="-838.4" font-family="Times Roman,serif" font-size="14.00">uri :string</text>
<text text-anchor="start" x="274.5" y="-820.4" font-family="Times Roman,serif" font-size="14.00">deleted :boolean</text>
<text text-anchor="start" x="274.5" y="-802.4" font-family="Times Roman,serif" font-size="14.00">is_ad :boolean</text>
<text text-anchor="start" x="274.5" y="-784.4" font-family="Times Roman,serif" font-size="14.00">popularity :decimal</text>
</g>
<!-- Domain&#45;&gt;Snop -->
<g id="edge4" class="edge"><title>Domain&#45;&gt;Snop</title>
<path fill="none" stroke="#b90399" d="M338.576,-1274.58C337.088,-1264.4 335.804,-1253.93 335,-1244 330.933,-1193.79 331.559,-1139 334.043,-1089.31"/>
<ellipse fill="none" stroke="#b90399" cx="339.205" cy="-1278.71" rx="4.00001" ry="4.00001"/>
<polygon fill="#b90399" stroke="#b90399" points="334.054,-1089.1 339.075,-1079.35 334.318,-1084.1 334.582,-1079.11 334.582,-1079.11 334.582,-1079.11 334.318,-1084.1 330.088,-1078.87 334.054,-1089.1 334.054,-1089.1"/>
</g>
<!-- Resource -->
<g id="node8" class="node"><title>Resource</title>
<polyline fill="none" stroke="black" points="355.5,-1119 496.5,-1119 "/>
<path fill="none" stroke="black" d="M496.5,-1119C502.5,-1119 508.5,-1125 508.5,-1131"/>
<polyline fill="none" stroke="black" points="508.5,-1131 508.5,-1231 "/>
<path fill="none" stroke="black" d="M508.5,-1231C508.5,-1237 502.5,-1243 496.5,-1243"/>
<polyline fill="none" stroke="black" points="496.5,-1243 355.5,-1243 "/>
<path fill="none" stroke="black" d="M355.5,-1243C349.5,-1243 343.5,-1237 343.5,-1231"/>
<polyline fill="none" stroke="black" points="343.5,-1231 343.5,-1131 "/>
<path fill="none" stroke="black" d="M343.5,-1131C343.5,-1125 349.5,-1119 355.5,-1119"/>
<text text-anchor="middle" x="426" y="-1226.4" font-family="Times Roman,serif" font-size="14.00">Resource</text>
<polyline fill="none" stroke="black" points="343.5,-1217 508.5,-1217 "/>
<text text-anchor="start" x="351.5" y="-1200.4" font-family="Times Roman,serif" font-size="14.00">id :integer</text>
<text text-anchor="start" x="351.5" y="-1182.4" font-family="Times Roman,serif" font-size="14.00">uri :string</text>
<text text-anchor="start" x="351.5" y="-1164.4" font-family="Times Roman,serif" font-size="14.00">created_at :datetime</text>
<text text-anchor="start" x="351.5" y="-1146.4" font-family="Times Roman,serif" font-size="14.00">updated_at :datetime</text>
<text text-anchor="start" x="351.5" y="-1128.4" font-family="Times Roman,serif" font-size="14.00">domain_id :integer</text>
</g>
<!-- Domain&#45;&gt;Resource -->
<g id="edge2" class="edge"><title>Domain&#45;&gt;Resource</title>
<path fill="none" stroke="#af9685" d="M379.702,-1275.42C383.425,-1267.83 387.26,-1260.01 391.054,-1252.27"/>
<ellipse fill="none" stroke="#af9685" cx="377.916" cy="-1279.07" rx="4.00002" ry="4.00002"/>
<polygon fill="#af9685" stroke="#af9685" points="391.078,-1252.22 399.521,-1245.22 393.279,-1247.73 395.481,-1243.24 395.481,-1243.24 395.481,-1243.24 393.279,-1247.73 391.44,-1241.26 391.078,-1252.22 391.078,-1252.22"/>
</g>
<!-- FaveSnop -->
<g id="node4" class="node"><title>FaveSnop</title>
<polyline fill="none" stroke="black" points="152.5,-181 293.5,-181 "/>
<path fill="none" stroke="black" d="M293.5,-181C299.5,-181 305.5,-187 305.5,-193"/>
<polyline fill="none" stroke="black" points="305.5,-193 305.5,-293 "/>
<path fill="none" stroke="black" d="M305.5,-293C305.5,-299 299.5,-305 293.5,-305"/>
<polyline fill="none" stroke="black" points="293.5,-305 152.5,-305 "/>
<path fill="none" stroke="black" d="M152.5,-305C146.5,-305 140.5,-299 140.5,-293"/>
<polyline fill="none" stroke="black" points="140.5,-293 140.5,-193 "/>
<path fill="none" stroke="black" d="M140.5,-193C140.5,-187 146.5,-181 152.5,-181"/>
<text text-anchor="middle" x="223" y="-288.4" font-family="Times Roman,serif" font-size="14.00">FaveSnop</text>
<polyline fill="none" stroke="black" points="140.5,-279 305.5,-279 "/>
<text text-anchor="start" x="148.5" y="-262.4" font-family="Times Roman,serif" font-size="14.00">id :integer</text>
<text text-anchor="start" x="148.5" y="-244.4" font-family="Times Roman,serif" font-size="14.00">user_id :integer</text>
<text text-anchor="start" x="148.5" y="-226.4" font-family="Times Roman,serif" font-size="14.00">snop_id :integer</text>
<text text-anchor="start" x="148.5" y="-208.4" font-family="Times Roman,serif" font-size="14.00">created_at :datetime</text>
<text text-anchor="start" x="148.5" y="-190.4" font-family="Times Roman,serif" font-size="14.00">updated_at :datetime</text>
</g>
<!-- Snop&#45;&gt;FaveSnop -->
<g id="edge6" class="edge"><title>Snop&#45;&gt;FaveSnop</title>
<path fill="none" stroke="#5cc143" d="M270.427,-767.021C268.911,-763.325 267.432,-759.648 266,-756 207.804,-607.812 209.777,-417.468 216.362,-315.384"/>
<ellipse fill="none" stroke="#5cc143" cx="272.056" cy="-770.937" rx="4.00001" ry="4.00001"/>
<polygon fill="#5cc143" stroke="#5cc143" points="216.377,-315.16 221.544,-305.488 216.716,-310.172 217.054,-305.183 217.054,-305.183 217.054,-305.183 216.716,-310.172 212.565,-304.879 216.377,-315.16 216.377,-315.16"/>
</g>
<!-- SnopToUserCategory -->
<g id="node5" class="node"><title>SnopToUserCategory</title>
<polyline fill="none" stroke="black" points="48,-1 216,-1 "/>
<path fill="none" stroke="black" d="M216,-1C222,-1 228,-7 228,-13"/>
<polyline fill="none" stroke="black" points="228,-13 228,-113 "/>
<path fill="none" stroke="black" d="M228,-113C228,-119 222,-125 216,-125"/>
<polyline fill="none" stroke="black" points="216,-125 48,-125 "/>
<path fill="none" stroke="black" d="M48,-125C42,-125 36,-119 36,-113"/>
<polyline fill="none" stroke="black" points="36,-113 36,-13 "/>
<path fill="none" stroke="black" d="M36,-13C36,-7 42,-1 48,-1"/>
<text text-anchor="middle" x="132" y="-108.4" font-family="Times Roman,serif" font-size="14.00">SnopToUserCategory</text>
<polyline fill="none" stroke="black" points="36,-99 228,-99 "/>
<text text-anchor="start" x="44" y="-82.4" font-family="Times Roman,serif" font-size="14.00">id :integer</text>
<text text-anchor="start" x="44" y="-64.4" font-family="Times Roman,serif" font-size="14.00">snop_id :integer</text>
<text text-anchor="start" x="44" y="-46.4" font-family="Times Roman,serif" font-size="14.00">user_category_id :integer</text>
<text text-anchor="start" x="44" y="-28.4" font-family="Times Roman,serif" font-size="14.00">created_at :datetime</text>
<text text-anchor="start" x="44" y="-10.4" font-family="Times Roman,serif" font-size="14.00">updated_at :datetime</text>
</g>
<!-- Snop&#45;&gt;SnopToUserCategory -->
<g id="edge10" class="edge"><title>Snop&#45;&gt;SnopToUserCategory</title>
<path fill="none" stroke="#524f05" d="M261.768,-811.811C182.772,-699.093 72.9837,-518.996 34,-342 17.9887,-269.305 51.5514,-189.456 83.6688,-133.877"/>
<ellipse fill="none" stroke="#524f05" cx="264.149" cy="-815.196" rx="4.00002" ry="4.00002"/>
<polygon fill="#524f05" stroke="#524f05" points="83.7237,-133.784 92.6795,-127.456 86.2635,-129.477 88.8033,-125.171 88.8033,-125.171 88.8033,-125.171 86.2635,-129.477 84.927,-122.885 83.7237,-133.784 83.7237,-133.784"/>
<text text-anchor="middle" x="122.5" y="-329.4" font-family="Times Roman,serif" font-size="14.00">snops_to_user_categories</text>
</g>
<!-- User -->
<g id="node6" class="node"><title>User</title>
<polyline fill="none" stroke="black" points="276,-361 506,-361 "/>
<path fill="none" stroke="black" d="M506,-361C512,-361 518,-367 518,-373"/>
<polyline fill="none" stroke="black" points="518,-373 518,-707 "/>
<path fill="none" stroke="black" d="M518,-707C518,-713 512,-719 506,-719"/>
<polyline fill="none" stroke="black" points="506,-719 276,-719 "/>
<path fill="none" stroke="black" d="M276,-719C270,-719 264,-713 264,-707"/>
<polyline fill="none" stroke="black" points="264,-707 264,-373 "/>
<path fill="none" stroke="black" d="M264,-373C264,-367 270,-361 276,-361"/>
<text text-anchor="middle" x="391" y="-702.4" font-family="Times Roman,serif" font-size="14.00">User</text>
<polyline fill="none" stroke="black" points="264,-693 518,-693 "/>
<text text-anchor="start" x="272" y="-676.4" font-family="Times Roman,serif" font-size="14.00">id :integer</text>
<text text-anchor="start" x="272" y="-658.4" font-family="Times Roman,serif" font-size="14.00">email :string</text>
<text text-anchor="start" x="272" y="-640.4" font-family="Times Roman,serif" font-size="14.00">encrypted_password :string</text>
<text text-anchor="start" x="272" y="-622.4" font-family="Times Roman,serif" font-size="14.00">reset_password_token :string</text>
<text text-anchor="start" x="272" y="-604.4" font-family="Times Roman,serif" font-size="14.00">reset_password_sent_at :datetime</text>
<text text-anchor="start" x="272" y="-586.4" font-family="Times Roman,serif" font-size="14.00">remember_created_at :datetime</text>
<text text-anchor="start" x="272" y="-568.4" font-family="Times Roman,serif" font-size="14.00">sign_in_count :integer</text>
<text text-anchor="start" x="272" y="-550.4" font-family="Times Roman,serif" font-size="14.00">current_sign_in_at :datetime</text>
<text text-anchor="start" x="272" y="-532.4" font-family="Times Roman,serif" font-size="14.00">last_sign_in_at :datetime</text>
<text text-anchor="start" x="272" y="-514.4" font-family="Times Roman,serif" font-size="14.00">current_sign_in_ip :string</text>
<text text-anchor="start" x="272" y="-496.4" font-family="Times Roman,serif" font-size="14.00">last_sign_in_ip :string</text>
<text text-anchor="start" x="272" y="-478.4" font-family="Times Roman,serif" font-size="14.00">created_at :datetime</text>
<text text-anchor="start" x="272" y="-460.4" font-family="Times Roman,serif" font-size="14.00">updated_at :datetime</text>
<text text-anchor="start" x="272" y="-442.4" font-family="Times Roman,serif" font-size="14.00">username :string</text>
<text text-anchor="start" x="272" y="-424.4" font-family="Times Roman,serif" font-size="14.00">confirmation_token :string</text>
<text text-anchor="start" x="272" y="-406.4" font-family="Times Roman,serif" font-size="14.00">confirmed_at :datetime</text>
<text text-anchor="start" x="272" y="-388.4" font-family="Times Roman,serif" font-size="14.00">confirmation_sent_at :datetime</text>
<text text-anchor="start" x="272" y="-370.4" font-family="Times Roman,serif" font-size="14.00">unconfirmed_email :string</text>
</g>
<!-- Snop&#45;&gt;User -->
<g id="edge8" class="edge"><title>Snop&#45;&gt;User</title>
<path fill="none" stroke="#820c1e" d="M347.765,-764.711C348.348,-755.665 349.084,-746.713 350,-738 350.305,-735.095 350.634,-732.17 350.985,-729.229"/>
<polygon fill="#820c1e" stroke="#820c1e" points="347.75,-764.973 342.677,-774.695 347.46,-769.965 347.17,-774.956 347.17,-774.956 347.17,-774.956 347.46,-769.965 351.662,-775.217 347.75,-764.973 347.75,-764.973"/>
<polygon fill="#820c1e" stroke="#820c1e" points="351.001,-729.095 356.721,-719.739 351.629,-724.135 352.257,-719.174 352.257,-719.174 352.257,-719.174 351.629,-724.135 347.792,-718.61 351.001,-729.095 351.001,-729.095"/>
<text text-anchor="middle" x="409.5" y="-743.4" font-family="Times Roman,serif" font-size="14.00">users_that_faved</text>
</g>
<!-- UserCategory -->
<g id="node7" class="node"><title>UserCategory</title>
<polyline fill="none" stroke="black" points="334.5,-181 475.5,-181 "/>
<path fill="none" stroke="black" d="M475.5,-181C481.5,-181 487.5,-187 487.5,-193"/>
<polyline fill="none" stroke="black" points="487.5,-193 487.5,-293 "/>
<path fill="none" stroke="black" d="M487.5,-293C487.5,-299 481.5,-305 475.5,-305"/>
<polyline fill="none" stroke="black" points="475.5,-305 334.5,-305 "/>
<path fill="none" stroke="black" d="M334.5,-305C328.5,-305 322.5,-299 322.5,-293"/>
<polyline fill="none" stroke="black" points="322.5,-293 322.5,-193 "/>
<path fill="none" stroke="black" d="M322.5,-193C322.5,-187 328.5,-181 334.5,-181"/>
<text text-anchor="middle" x="405" y="-288.4" font-family="Times Roman,serif" font-size="14.00">UserCategory</text>
<polyline fill="none" stroke="black" points="322.5,-279 487.5,-279 "/>
<text text-anchor="start" x="330.5" y="-262.4" font-family="Times Roman,serif" font-size="14.00">id :integer</text>
<text text-anchor="start" x="330.5" y="-244.4" font-family="Times Roman,serif" font-size="14.00">name :string</text>
<text text-anchor="start" x="330.5" y="-226.4" font-family="Times Roman,serif" font-size="14.00">user_id :integer</text>
<text text-anchor="start" x="330.5" y="-208.4" font-family="Times Roman,serif" font-size="14.00">created_at :datetime</text>
<text text-anchor="start" x="330.5" y="-190.4" font-family="Times Roman,serif" font-size="14.00">updated_at :datetime</text>
</g>
<!-- Snop&#45;&gt;UserCategory -->
<g id="edge12" class="edge"><title>Snop&#45;&gt;UserCategory</title>
<path fill="none" stroke="#630ac6" d="M441.484,-899.356C508.613,-873.893 594.624,-828.817 636,-756 726.184,-597.288 621.405,-516.239 527,-360 516.855,-343.21 503.689,-327.21 489.772,-312.734"/>
<polygon fill="#630ac6" stroke="#630ac6" points="441.102,-899.498 430.161,-898.752 436.413,-901.235 431.725,-902.972 431.725,-902.972 431.725,-902.972 436.413,-901.235 433.288,-907.192 441.102,-899.498 441.102,-899.498"/>
<polygon fill="#630ac6" stroke="#630ac6" points="489.464,-312.422 485.64,-302.144 485.951,-308.864 482.438,-305.306 482.438,-305.306 482.438,-305.306 485.951,-308.864 479.236,-308.468 489.464,-312.422 489.464,-312.422"/>
</g>
<!-- User&#45;&gt;Snop -->
<g id="edge22" class="edge"><title>User&#45;&gt;Snop</title>
<path fill="none" stroke="#ca264d" d="M474.095,-729.272C473.408,-738.286 471.77,-747.23 469,-756 461.751,-778.949 450.198,-801.49 437.058,-822.293"/>
<polygon fill="#ca264d" stroke="#ca264d" points="474.102,-729.062 478.972,-719.237 474.289,-724.066 474.475,-719.069 474.475,-719.069 474.475,-719.069 474.289,-724.066 469.979,-718.902 474.102,-729.062 474.102,-729.062"/>
<polygon fill="#ca264d" stroke="#ca264d" points="436.988,-822.401 427.769,-828.339 434.266,-826.595 431.544,-830.789 431.544,-830.789 431.544,-830.789 434.266,-826.595 435.318,-833.239 436.988,-822.401 436.988,-822.401"/>
<text text-anchor="middle" x="536.5" y="-743.4" font-family="Times Roman,serif" font-size="14.00">categorized_snops</text>
</g>
<!-- User&#45;&gt;Snop -->
<g id="edge14" class="edge"><title>User&#45;&gt;Snop</title>
<path fill="none" stroke="#b520f7" d="M525.252,-599.229C592.705,-638.124 653.504,-693.306 619,-756 581.403,-824.314 503.717,-869.157 441.287,-895.712"/>
<ellipse fill="none" stroke="#b520f7" cx="521.763" cy="-597.251" rx="4.00002" ry="4.00002"/>
<polygon fill="#b520f7" stroke="#b520f7" points="441.033,-895.817 430.072,-895.502 436.417,-897.737 431.8,-899.657 431.8,-899.657 431.8,-899.657 436.417,-897.737 433.528,-903.812 441.033,-895.817 441.033,-895.817"/>
</g>
<!-- User&#45;&gt;Snop -->
<g id="edge18" class="edge"><title>User&#45;&gt;Snop</title>
<path fill="none" stroke="#e1b9de" d="M276.661,-728.906C275.717,-731.936 274.829,-734.968 274,-738 271.599,-746.783 270.443,-755.715 270.306,-764.676"/>
<polygon fill="#e1b9de" stroke="#e1b9de" points="276.717,-728.735 284.129,-720.653 278.287,-723.987 279.856,-719.24 279.856,-719.24 279.856,-719.24 278.287,-723.987 275.584,-717.827 276.717,-728.735 276.717,-728.735"/>
<polygon fill="#e1b9de" stroke="#e1b9de" points="270.309,-764.804 266.073,-774.918 270.44,-769.802 270.572,-774.8 270.572,-774.8 270.572,-774.8 270.44,-769.802 275.07,-774.682 270.309,-764.804 270.309,-764.804"/>
<text text-anchor="middle" x="309" y="-743.4" font-family="Times Roman,serif" font-size="14.00">favourites</text>
</g>
<!-- User&#45;&gt;FaveSnop -->
<g id="edge16" class="edge"><title>User&#45;&gt;FaveSnop</title>
<path fill="none" stroke="#efbae6" d="M285.451,-353.405C277.633,-339.583 270.081,-326.232 263.093,-313.879"/>
<ellipse fill="none" stroke="#efbae6" cx="287.67" cy="-357.327" rx="4.00002" ry="4.00002"/>
<polygon fill="#efbae6" stroke="#efbae6" points="263.032,-313.771 262.026,-302.852 260.571,-309.419 258.109,-305.067 258.109,-305.067 258.109,-305.067 260.571,-309.419 254.192,-307.283 263.032,-313.771 263.032,-313.771"/>
</g>
<!-- User&#45;&gt;UserCategory -->
<g id="edge20" class="edge"><title>User&#45;&gt;UserCategory</title>
<path fill="none" stroke="#b142c2" d="M399.839,-352.486C400.453,-339.457 401.047,-326.86 401.6,-315.135"/>
<ellipse fill="none" stroke="#b142c2" cx="399.635" cy="-356.813" rx="4" ry="4"/>
<polygon fill="#b142c2" stroke="#b142c2" points="401.603,-315.056 406.569,-305.279 401.839,-310.062 402.074,-305.067 402.074,-305.067 402.074,-305.067 401.839,-310.062 397.579,-304.855 401.603,-315.056 401.603,-315.056"/>
</g>
<!-- UserCategory&#45;&gt;SnopToUserCategory -->
<g id="edge24" class="edge"><title>UserCategory&#45;&gt;SnopToUserCategory</title>
<path fill="none" stroke="#a89470" d="M315.533,-181.024C315.02,-180.681 314.509,-180.34 314,-180 289.156,-163.422 262.188,-145.855 236.812,-129.513"/>
<ellipse fill="none" stroke="#a89470" cx="318.935" cy="-183.308" rx="4.00002" ry="4.00002"/>
<polygon fill="#a89470" stroke="#a89470" points="236.683,-129.43 230.706,-120.236 232.477,-126.726 228.272,-124.021 228.272,-124.021 228.272,-124.021 232.477,-126.726 225.838,-127.806 236.683,-129.43 236.683,-129.43"/>
<text text-anchor="middle" x="372.5" y="-149.4" font-family="Times Roman,serif" font-size="14.00">snops_to_user_categories</text>
</g>
<!-- Resource&#45;&gt;Snop -->
<g id="edge26" class="edge"><title>Resource&#45;&gt;Snop</title>
<path fill="none" stroke="#e6f076" d="M404.754,-1110.92C402.605,-1103.83 400.366,-1096.44 398.072,-1088.87"/>
<ellipse fill="none" stroke="#e6f076" cx="406.003" cy="-1115.04" rx="4.00001" ry="4.00001"/>
<polygon fill="#e6f076" stroke="#e6f076" points="398.042,-1088.77 399.447,-1077.9 396.591,-1083.99 395.14,-1079.2 395.14,-1079.2 395.14,-1079.2 396.591,-1083.99 390.834,-1080.51 398.042,-1088.77 398.042,-1088.77"/>
</g>
</g>
</svg>
