<?xml version="1.0" encoding="UTF-8" standalone="no"?>
<!DOCTYPE svg PUBLIC "-//W3C//DTD SVG 1.1//EN"
 "http://www.w3.org/Graphics/SVG/1.1/DTD/svg11.dtd">
<!-- Generated by graphviz version 2.26.3 (20100126.1600)
 -->
<!-- Title: models_diagram Pages: 1 -->
<svg width="645pt" height="530pt"
 viewBox="0.00 0.00 645.25 530.00" xmlns="http://www.w3.org/2000/svg" xmlns:xlink="http://www.w3.org/1999/xlink">
<g id="graph1" class="graph" transform="scale(1 1) rotate(0) translate(4 526)">
<title>models_diagram</title>
<polygon fill="white" stroke="white" points="-4,5 -4,-526 642.255,-526 642.255,5 -4,5"/>
<!-- _diagram_info -->
<g id="node1" class="node"><title>_diagram_info</title>
<text text-anchor="start" x="29" y="-505.8" font-family="Times Roman,serif" font-size="13.00">Models diagram</text>
<text text-anchor="start" x="29" y="-488.8" font-family="Times Roman,serif" font-size="13.00">Date: Sep 05 2012 &#45; 12:01</text>
<text text-anchor="start" x="29" y="-471.8" font-family="Times Roman,serif" font-size="13.00">Migration version: 20120829183622</text>
<text text-anchor="start" x="29" y="-454.8" font-family="Times Roman,serif" font-size="13.00">Generated by RailRoady 1.0.8</text>
<text text-anchor="start" x="29" y="-437.8" font-family="Times Roman,serif" font-size="13.00">http://railroady.prestonlee.com</text>
</g>
<!-- Domain -->
<g id="node2" class="node"><title>Domain</title>
<ellipse fill="none" stroke="black" cx="338" cy="-475" rx="48.9975" ry="18.3848"/>
<text text-anchor="middle" x="338" y="-471.4" font-family="Times Roman,serif" font-size="14.00">Domain</text>
</g>
<!-- Snop -->
<g id="node3" class="node"><title>Snop</title>
<ellipse fill="none" stroke="black" cx="338" cy="-295" rx="36.0624" ry="18.3848"/>
<text text-anchor="middle" x="338" y="-291.4" font-family="Times Roman,serif" font-size="14.00">Snop</text>
</g>
<!-- Domain&#45;&gt;Snop -->
<g id="edge4" class="edge"><title>Domain&#45;&gt;Snop</title>
<path fill="none" stroke="#5e9f55" d="M334.153,-448.003C331.099,-423.079 327.693,-385.036 330,-352 330.645,-342.757 331.873,-332.733 333.176,-323.705"/>
<ellipse fill="none" stroke="#5e9f55" cx="334.701" cy="-452.274" rx="4.00001" ry="4.00001"/>
<polygon fill="#5e9f55" stroke="#5e9f55" points="333.198,-323.557 339.158,-314.352 333.954,-318.614 334.71,-313.672 334.71,-313.672 334.71,-313.672 333.954,-318.614 330.262,-312.991 333.198,-323.557 333.198,-323.557"/>
</g>
<!-- Resource -->
<g id="node8" class="node"><title>Resource</title>
<ellipse fill="none" stroke="black" cx="395" cy="-371" rx="55.8614" ry="18.3848"/>
<text text-anchor="middle" x="395" y="-367.4" font-family="Times Roman,serif" font-size="14.00">Resource</text>
</g>
<!-- Domain&#45;&gt;Resource -->
<g id="edge2" class="edge"><title>Domain&#45;&gt;Resource</title>
<path fill="none" stroke="#c59887" d="M352.051,-449.363C360.565,-433.83 371.417,-414.029 380.082,-398.218"/>
<ellipse fill="none" stroke="#c59887" cx="350.113" cy="-452.899" rx="4.00002" ry="4.00002"/>
<polygon fill="#c59887" stroke="#c59887" points="380.091,-398.201 388.844,-391.595 382.495,-393.817 384.898,-389.432 384.898,-389.432 384.898,-389.432 382.495,-393.817 380.952,-387.269 380.091,-398.201 380.091,-398.201"/>
</g>
<!-- FaveSnop -->
<g id="node4" class="node"><title>FaveSnop</title>
<ellipse fill="none" stroke="black" cx="212" cy="-111" rx="58.1882" ry="18.3848"/>
<text text-anchor="middle" x="212" y="-107.4" font-family="Times Roman,serif" font-size="14.00">FaveSnop</text>
</g>
<!-- Snop&#45;&gt;FaveSnop -->
<g id="edge6" class="edge"><title>Snop&#45;&gt;FaveSnop</title>
<path fill="none" stroke="#05946c" d="M297.591,-284.544C282.713,-278.878 266.861,-270.411 256,-258 226.684,-224.499 216.892,-172.097 213.627,-139.745"/>
<ellipse fill="none" stroke="#05946c" cx="301.481" cy="-285.922" rx="4.00001" ry="4.00001"/>
<polygon fill="#05946c" stroke="#05946c" points="213.611,-139.561 217.234,-129.211 213.181,-134.58 212.751,-129.598 212.751,-129.598 212.751,-129.598 213.181,-134.58 208.268,-129.985 213.611,-139.561 213.611,-139.561"/>
</g>
<!-- SnopToUserCategory -->
<g id="node5" class="node"><title>SnopToUserCategory</title>
<ellipse fill="none" stroke="black" cx="114" cy="-19" rx="113.844" ry="18.3848"/>
<text text-anchor="middle" x="114" y="-15.4" font-family="Times Roman,serif" font-size="14.00">SnopToUserCategory</text>
</g>
<!-- Snop&#45;&gt;SnopToUserCategory -->
<g id="edge10" class="edge"><title>Snop&#45;&gt;SnopToUserCategory</title>
<path fill="none" stroke="#e31236" d="M293.966,-291.325C224.357,-282.86 90.8715,-255.226 33,-166 6.13691,-124.583 50.3043,-73.6035 83.253,-43.8578"/>
<ellipse fill="none" stroke="#e31236" cx="298.155" cy="-291.808" rx="4.00001" ry="4.00001"/>
<polygon fill="#e31236" stroke="#e31236" points="83.4032,-43.7259 93.8872,-40.511 87.1609,-40.4275 90.9186,-37.129 90.9186,-37.129 90.9186,-37.129 87.1609,-40.4275 87.95,-33.7471 83.4032,-43.7259 83.4032,-43.7259"/>
<text text-anchor="middle" x="121.5" y="-153.4" font-family="Times Roman,serif" font-size="14.00">snops_to_user_categories</text>
</g>
<!-- User -->
<g id="node6" class="node"><title>User</title>
<ellipse fill="none" stroke="black" cx="342" cy="-203" rx="33.9411" ry="18.3848"/>
<text text-anchor="middle" x="342" y="-199.4" font-family="Times Roman,serif" font-size="14.00">User</text>
</g>
<!-- Snop&#45;&gt;User -->
<g id="edge8" class="edge"><title>Snop&#45;&gt;User</title>
<path fill="none" stroke="#d1b705" d="M338.183,-266.243C338.328,-257.785 338.578,-248.518 339,-240 339.128,-237.409 339.291,-234.718 339.473,-232.023"/>
<polygon fill="#d1b705" stroke="#d1b705" points="338.181,-266.407 333.549,-276.346 338.114,-271.406 338.048,-276.406 338.048,-276.406 338.048,-276.406 338.114,-271.406 342.548,-276.465 338.181,-266.407 338.181,-266.407"/>
<polygon fill="#d1b705" stroke="#d1b705" points="339.491,-231.779 344.733,-222.147 339.868,-226.794 340.245,-221.808 340.245,-221.808 340.245,-221.808 339.868,-226.794 335.758,-221.469 339.491,-231.779 339.491,-231.779"/>
<text text-anchor="middle" x="398.5" y="-245.4" font-family="Times Roman,serif" font-size="14.00">users_that_faved</text>
</g>
<!-- UserCategory -->
<g id="node7" class="node"><title>UserCategory</title>
<ellipse fill="none" stroke="black" cx="366" cy="-111" rx="77.9889" ry="18.3848"/>
<text text-anchor="middle" x="366" y="-107.4" font-family="Times Roman,serif" font-size="14.00">UserCategory</text>
</g>
<!-- Snop&#45;&gt;UserCategory -->
<g id="edge12" class="edge"><title>Snop&#45;&gt;UserCategory</title>
<path fill="none" stroke="#12602f" d="M384.183,-292.296C460.841,-287.332 607.51,-275.631 623,-258 683.618,-189.004 534.423,-144.71 438.766,-124.248"/>
<polygon fill="#12602f" stroke="#12602f" points="383.832,-292.318 373.567,-288.461 378.842,-292.635 373.852,-292.952 373.852,-292.952 373.852,-292.952 378.842,-292.635 374.137,-297.443 383.832,-292.318 383.832,-292.318"/>
<polygon fill="#12602f" stroke="#12602f" points="438.61,-124.215 429.746,-117.76 433.717,-123.19 428.823,-122.165 428.823,-122.165 428.823,-122.165 433.717,-123.19 427.9,-126.569 438.61,-124.215 438.61,-124.215"/>
</g>
<!-- User&#45;&gt;Snop -->
<g id="edge22" class="edge"><title>User&#45;&gt;Snop</title>
<path fill="none" stroke="#f5ecf8" d="M385.655,-207.978C426.911,-214.537 479.521,-228.844 458,-258 448.753,-270.528 412.46,-280.596 382.185,-287.048"/>
<polygon fill="#f5ecf8" stroke="#f5ecf8" points="385.621,-207.974 376.388,-202.059 380.675,-207.242 375.729,-206.51 375.729,-206.51 375.729,-206.51 380.675,-207.242 375.071,-210.962 385.621,-207.974 385.621,-207.974"/>
<polygon fill="#f5ecf8" stroke="#f5ecf8" points="381.992,-287.087 371.292,-284.687 377.094,-288.091 372.196,-289.095 372.196,-289.095 372.196,-289.095 377.094,-288.091 373.1,-293.504 381.992,-287.087 381.992,-287.087"/>
<text text-anchor="middle" x="525.5" y="-245.4" font-family="Times Roman,serif" font-size="14.00">categorized_snops</text>
</g>
<!-- User&#45;&gt;Snop -->
<g id="edge14" class="edge"><title>User&#45;&gt;Snop</title>
<path fill="none" stroke="#595c5b" d="M384.35,-205.877C455.699,-211.158 593.548,-223.399 608,-240 613.253,-246.034 613.259,-251.971 608,-258 593.53,-274.588 457.417,-286.611 384.163,-291.941"/>
<ellipse fill="none" stroke="#595c5b" cx="379.981" cy="-205.558" rx="4" ry="4"/>
<polygon fill="#595c5b" stroke="#595c5b" points="383.808,-291.966 373.512,-288.19 378.82,-292.322 373.833,-292.678 373.833,-292.678 373.833,-292.678 378.82,-292.322 374.153,-297.167 383.808,-291.966 383.808,-291.966"/>
</g>
<!-- User&#45;&gt;Snop -->
<g id="edge18" class="edge"><title>User&#45;&gt;Snop</title>
<path fill="none" stroke="#8df34e" d="M300.306,-212.971C286.317,-218.519 272.202,-227.032 264,-240 252.344,-258.43 274.049,-272.82 296.91,-282.251"/>
<polygon fill="#8df34e" stroke="#8df34e" points="300.465,-212.915 311.393,-213.829 305.18,-211.25 309.895,-209.586 309.895,-209.586 309.895,-209.586 305.18,-211.25 308.397,-205.343 300.465,-212.915 300.465,-212.915"/>
<polygon fill="#8df34e" stroke="#8df34e" points="297.002,-282.286 304.731,-290.066 301.672,-284.075 306.341,-285.864 306.341,-285.864 306.341,-285.864 301.672,-284.075 307.951,-281.662 297.002,-282.286 297.002,-282.286"/>
<text text-anchor="middle" x="299" y="-245.4" font-family="Times Roman,serif" font-size="14.00">favourites</text>
</g>
<!-- User&#45;&gt;FaveSnop -->
<g id="edge16" class="edge"><title>User&#45;&gt;FaveSnop</title>
<path fill="none" stroke="#95a0b0" d="M314.52,-183.553C293.953,-168.998 265.765,-149.049 244.151,-133.753"/>
<ellipse fill="none" stroke="#95a0b0" cx="317.848" cy="-185.908" rx="4.00002" ry="4.00002"/>
<polygon fill="#95a0b0" stroke="#95a0b0" points="244.087,-133.708 238.524,-124.258 240.006,-130.82 235.924,-127.931 235.924,-127.931 235.924,-127.931 240.006,-130.82 233.325,-131.604 244.087,-133.708 244.087,-133.708"/>
</g>
<!-- User&#45;&gt;UserCategory -->
<g id="edge20" class="edge"><title>User&#45;&gt;UserCategory</title>
<path fill="none" stroke="#655855" d="M348.927,-176.447C351.955,-164.84 355.51,-151.21 358.591,-139.401"/>
<ellipse fill="none" stroke="#655855" cx="347.866" cy="-180.512" rx="4.00001" ry="4.00001"/>
<polygon fill="#655855" stroke="#655855" points="358.626,-139.266 365.505,-130.726 359.888,-134.428 361.15,-129.59 361.15,-129.59 361.15,-129.59 359.888,-134.428 356.796,-128.454 358.626,-139.266 358.626,-139.266"/>
</g>
<!-- UserCategory&#45;&gt;SnopToUserCategory -->
<g id="edge24" class="edge"><title>UserCategory&#45;&gt;SnopToUserCategory</title>
<path fill="none" stroke="#30f812" d="M315.609,-92.6034C273.515,-77.2357 213.555,-55.3455 169.974,-39.4348"/>
<ellipse fill="none" stroke="#30f812" cx="319.494" cy="-94.0217" rx="4.00001" ry="4.00001"/>
<polygon fill="#30f812" stroke="#30f812" points="169.775,-39.3623 161.924,-31.7057 165.078,-37.6476 160.381,-35.9328 160.381,-35.9328 160.381,-35.9328 165.078,-37.6476 158.838,-40.1599 169.775,-39.3623 169.775,-39.3623"/>
<text text-anchor="middle" x="350.5" y="-61.4" font-family="Times Roman,serif" font-size="14.00">snops_to_user_categories</text>
</g>
<!-- Resource&#45;&gt;Snop -->
<g id="edge26" class="edge"><title>Resource&#45;&gt;Snop</title>
<path fill="none" stroke="#e138d0" d="M376.51,-346.346C370.334,-338.113 363.441,-328.921 357.212,-320.616"/>
<ellipse fill="none" stroke="#e138d0" cx="379.092" cy="-349.789" rx="4.00002" ry="4.00002"/>
<polygon fill="#e138d0" stroke="#e138d0" points="357.019,-320.359 354.619,-309.659 354.019,-316.359 351.019,-312.359 351.019,-312.359 351.019,-312.359 354.019,-316.359 347.419,-315.059 357.019,-320.359 357.019,-320.359"/>
</g>
</g>
</svg>
